<svg xmlns="http://www.w3.org/2000/svg" xmlns:xlink="http://www.w3.org/1999/xlink" width="61" height="65" viewBox="0 0 61 65">
  <defs>
    <style>
      .cls-1 {
        clip-path: url(#clip-HOME_Leeg);
      }

      .cls-2 {
        fill: none;
        stroke: #134392;
      }
    </style>
    <clipPath id="clip-HOME_Leeg">
      <rect width="61" height="65"/>
    </clipPath>
  </defs>
  <g id="HOME_Leeg" data-name="HOME Leeg" class="cls-1">
    <path id="Icon_awesome-hospital" data-name="Icon awesome-hospital" class="cls-2" d="M38.214,41.967v1.706H0V41.967a1.024,1.024,0,0,1,1.024-1.024H2.73V10.236A2.047,2.047,0,0,1,4.777,8.189h7.506V2.047A2.047,2.047,0,0,1,14.33,0h9.554a2.047,2.047,0,0,1,2.047,2.047V8.189h7.506a2.047,2.047,0,0,1,2.047,2.047V40.944H37.19A1.024,1.024,0,0,1,38.214,41.967ZM26.272,16.377H22.86A1.024,1.024,0,0,0,21.837,17.4v3.412a1.024,1.024,0,0,0,1.024,1.024h3.412A1.024,1.024,0,0,0,27.3,20.813V17.4A1.024,1.024,0,0,0,26.272,16.377Zm-14.33,5.459h3.412a1.024,1.024,0,0,0,1.024-1.024V17.4a1.024,1.024,0,0,0-1.024-1.024H11.942A1.024,1.024,0,0,0,10.918,17.4v3.412A1.024,1.024,0,0,0,11.942,21.837Zm8.871,10.918H17.4a1.024,1.024,0,0,0-1.024,1.024v7.165h5.459V33.779A1.024,1.024,0,0,0,20.813,32.755Zm5.459-8.189H22.86a1.024,1.024,0,0,0-1.024,1.024V29a1.024,1.024,0,0,0,1.024,1.024h3.412A1.024,1.024,0,0,0,27.3,29V25.59A1.024,1.024,0,0,0,26.272,24.566ZM16.377,25.59a1.024,1.024,0,0,0-1.024-1.024H11.942a1.024,1.024,0,0,0-1.024,1.024V29a1.024,1.024,0,0,0,1.024,1.024h3.412A1.024,1.024,0,0,0,16.377,29Zm-.853-17.4h2.218v2.218a.512.512,0,0,0,.512.512H19.96a.512.512,0,0,0,.512-.512V8.189H22.69a.512.512,0,0,0,.512-.512V5.971a.512.512,0,0,0-.512-.512H20.472V3.241a.512.512,0,0,0-.512-.512H18.254a.512.512,0,0,0-.512.512V5.459H15.524a.512.512,0,0,0-.512.512V7.677A.512.512,0,0,0,15.524,8.189Z" transform="translate(11.893 10.327)"/>
  </g>
</svg>
