<svg xmlns="http://www.w3.org/2000/svg" xmlns:xlink="http://www.w3.org/1999/xlink" width="43" height="33" viewBox="0 0 43 33">
  <defs>
    <style>
      .cls-1 {
        clip-path: url(#clip-Instellingen_leeg);
      }

      .cls-2 {
        fill: none;
        stroke: #134392;
      }
    </style>
    <clipPath id="clip-Instellingen_leeg">
      <rect width="43" height="33"/>
    </clipPath>
  </defs>
  <g id="Instellingen_leeg" data-name="Instellingen leeg" class="cls-1">
    <path id="Subtraction_51" data-name="Subtraction 51" class="cls-2" d="M2929.249-3224a2.294,2.294,0,0,1-2.211-2.364v-.106a1.932,1.932,0,0,0-1.194-1.784,1.709,1.709,0,0,0-.736-.166,1.756,1.756,0,0,0-1.275.556l-.066.071a2.153,2.153,0,0,1-1.564.693,2.127,2.127,0,0,1-1.564-.693,2.434,2.434,0,0,1-.648-1.672,2.464,2.464,0,0,1,.648-1.672l.066-.071a2.039,2.039,0,0,0,.365-2.15,1.823,1.823,0,0,0-1.668-1.182h-.188a2.294,2.294,0,0,1-2.211-2.363,2.294,2.294,0,0,1,2.211-2.364h.1a1.827,1.827,0,0,0,1.669-1.276,2.043,2.043,0,0,0-.365-2.151l-.067-.071a2.465,2.465,0,0,1-.649-1.671,2.467,2.467,0,0,1,.649-1.672,2.126,2.126,0,0,1,1.564-.693,2.126,2.126,0,0,1,1.564.693l.067.07a1.754,1.754,0,0,0,1.276.556,1.714,1.714,0,0,0,.736-.166h.088a1.956,1.956,0,0,0,1.106-1.785v-.2a2.294,2.294,0,0,1,2.21-2.364,2.294,2.294,0,0,1,2.211,2.364v.106a1.957,1.957,0,0,0,1.105,1.785,1.716,1.716,0,0,0,.736.166,1.754,1.754,0,0,0,1.276-.556l.067-.07a2.151,2.151,0,0,1,1.564-.693,2.126,2.126,0,0,1,1.564.693,2.431,2.431,0,0,1,.648,1.672,2.463,2.463,0,0,1-.648,1.671l-.067.071a2.042,2.042,0,0,0-.365,2.151v.094a1.825,1.825,0,0,0,1.669,1.182h.188a2.294,2.294,0,0,1,2.211,2.364,2.294,2.294,0,0,1-2.211,2.363h-.1a1.824,1.824,0,0,0-1.669,1.182,2.04,2.04,0,0,0,.365,2.15l.067.071a2.464,2.464,0,0,1,.648,1.672,2.434,2.434,0,0,1-.648,1.672,2.127,2.127,0,0,1-1.564.693,2.127,2.127,0,0,1-1.564-.693l-.067-.071a1.755,1.755,0,0,0-1.275-.556,1.709,1.709,0,0,0-.736.166,1.956,1.956,0,0,0-1.106,1.784v.2A2.294,2.294,0,0,1,2929.249-3224Zm-.089-17.5a4.505,4.505,0,0,0-4.5,4.5,4.505,4.505,0,0,0,4.5,4.5,4.505,4.505,0,0,0,4.5-4.5A4.505,4.505,0,0,0,2929.16-3241.5Z" transform="translate(-2907.66 3253.502)"/>
  </g>
</svg>
